<?xml version="1.0" encoding="UTF-8"?>
<svg xmlns="http://www.w3.org/2000/svg" xmlns:xlink="http://www.w3.org/1999/xlink" width="2603.39" height="3304.77" viewBox="0 0 2603.39 3304.77">
<defs>
<clipPath id="clip-0">
<path clip-rule="nonzero" d="M 252 977 L 2258 977 L 2258 3214 L 252 3214 Z M 252 977 "/>
</clipPath>
<clipPath id="clip-1">
<path clip-rule="evenodd" d="M 1709.578125 1599.390625 L 1351.878906 979.738281 C 1037.191406 953.21875 780.566406 1162.910156 547.117188 1636.230469 L 252.539062 2233.460938 L 391.917969 2273.230469 C 429.398438 2283.890625 453.101562 2320.820312 447.230469 2359.351562 L 333.015625 3110.21875 C 326.960938 3149.941406 353.449219 3203.390625 393.753906 3203.390625 C 437.460938 3203.390625 491.355469 3184.628906 499.40625 3131.808594 L 643.15625 2186.628906 C 649.527344 2144.660156 688.558594 2115.921875 730.515625 2121.539062 L 896.554688 2144.839844 C 934.796875 2150.230469 963.226562 2182.949219 963.226562 2221.558594 L 963.226562 3130.578125 C 963.226562 3241 1131.011719 3240.949219 1131.011719 3130.578125 L 1131.011719 2347.691406 C 1131.011719 2299.328125 1175.148438 2262.640625 1222.699219 2271.550781 L 1374.519531 2299.941406 C 1360.730469 2204.441406 1245.929688 1443.21875 1249.808594 1415.578125 C 1260.199219 1341.628906 1358.050781 1323.058594 1394.03125 1385.75 C 1451.46875 1485.878906 1592.488281 1805.910156 1682.078125 1805.910156 L 2091.011719 1805.910156 C 2121.160156 1729.738281 2181.761719 1668.808594 2257.691406 1638.199219 L 2253.960938 1638.121094 L 1776.671875 1638.121094 C 1748.980469 1638.121094 1723.449219 1623.339844 1709.578125 1599.390625 "/>
</clipPath>
<linearGradient id="linear-pattern-0" gradientUnits="userSpaceOnUse" x1="0.244468" y1="0" x2="0.75548" y2="0" gradientTransform="matrix(3923.88, 0, 0, 3923.88, -706.724, 2095.44)">
<stop offset="0" stop-color="rgb(37.541199%, 41.246033%, 69.812012%)" stop-opacity="1"/>
<stop offset="0.03125" stop-color="rgb(37.409973%, 41.427612%, 69.940186%)" stop-opacity="1"/>
<stop offset="0.0625" stop-color="rgb(37.145996%, 41.790771%, 70.196533%)" stop-opacity="1"/>
<stop offset="0.09375" stop-color="rgb(36.883545%, 42.153931%, 70.454407%)" stop-opacity="1"/>
<stop offset="0.125" stop-color="rgb(36.621094%, 42.51709%, 70.710754%)" stop-opacity="1"/>
<stop offset="0.15625" stop-color="rgb(36.357117%, 42.880249%, 70.967102%)" stop-opacity="1"/>
<stop offset="0.1875" stop-color="rgb(36.094666%, 43.243408%, 71.224976%)" stop-opacity="1"/>
<stop offset="0.21875" stop-color="rgb(35.830688%, 43.606567%, 71.481323%)" stop-opacity="1"/>
<stop offset="0.25" stop-color="rgb(35.568237%, 43.969727%, 71.737671%)" stop-opacity="1"/>
<stop offset="0.28125" stop-color="rgb(35.305786%, 44.332886%, 71.994019%)" stop-opacity="1"/>
<stop offset="0.3125" stop-color="rgb(35.041809%, 44.696045%, 72.251892%)" stop-opacity="1"/>
<stop offset="0.34375" stop-color="rgb(34.779358%, 45.059204%, 72.50824%)" stop-opacity="1"/>
<stop offset="0.375" stop-color="rgb(34.516907%, 45.422363%, 72.764587%)" stop-opacity="1"/>
<stop offset="0.40625" stop-color="rgb(34.25293%, 45.785522%, 73.020935%)" stop-opacity="1"/>
<stop offset="0.4375" stop-color="rgb(33.990479%, 46.148682%, 73.278809%)" stop-opacity="1"/>
<stop offset="0.46875" stop-color="rgb(33.726501%, 46.513367%, 73.535156%)" stop-opacity="1"/>
<stop offset="0.5" stop-color="rgb(33.46405%, 46.876526%, 73.791504%)" stop-opacity="1"/>
<stop offset="0.53125" stop-color="rgb(33.201599%, 47.239685%, 74.047852%)" stop-opacity="1"/>
<stop offset="0.5625" stop-color="rgb(32.937622%, 47.602844%, 74.305725%)" stop-opacity="1"/>
<stop offset="0.59375" stop-color="rgb(32.675171%, 47.966003%, 74.562073%)" stop-opacity="1"/>
<stop offset="0.625" stop-color="rgb(32.41272%, 48.329163%, 74.81842%)" stop-opacity="1"/>
<stop offset="0.65625" stop-color="rgb(32.148743%, 48.692322%, 75.076294%)" stop-opacity="1"/>
<stop offset="0.6875" stop-color="rgb(31.886292%, 49.055481%, 75.332642%)" stop-opacity="1"/>
<stop offset="0.71875" stop-color="rgb(31.622314%, 49.41864%, 75.588989%)" stop-opacity="1"/>
<stop offset="0.75" stop-color="rgb(31.359863%, 49.781799%, 75.845337%)" stop-opacity="1"/>
<stop offset="0.78125" stop-color="rgb(31.097412%, 50.144958%, 76.10321%)" stop-opacity="1"/>
<stop offset="0.8125" stop-color="rgb(30.833435%, 50.508118%, 76.359558%)" stop-opacity="1"/>
<stop offset="0.84375" stop-color="rgb(30.570984%, 50.871277%, 76.615906%)" stop-opacity="1"/>
<stop offset="0.875" stop-color="rgb(30.308533%, 51.234436%, 76.872253%)" stop-opacity="1"/>
<stop offset="0.90625" stop-color="rgb(30.044556%, 51.597595%, 77.130127%)" stop-opacity="1"/>
<stop offset="0.9375" stop-color="rgb(29.782104%, 51.960754%, 77.386475%)" stop-opacity="1"/>
<stop offset="0.96875" stop-color="rgb(29.518127%, 52.323914%, 77.642822%)" stop-opacity="1"/>
<stop offset="1" stop-color="rgb(29.255676%, 52.687073%, 77.900696%)" stop-opacity="1"/>
</linearGradient>
<clipPath id="clip-2">
<path clip-rule="nonzero" d="M 1419 219 L 1904 219 L 1904 704 L 1419 704 Z M 1419 219 "/>
</clipPath>
<clipPath id="clip-3">
<path clip-rule="evenodd" d="M 1661.328125 703.609375 C 1794.808594 703.609375 1903.398438 595.011719 1903.398438 461.550781 C 1903.398438 328.070312 1794.839844 219.460938 1661.328125 219.460938 C 1527.878906 219.460938 1419.269531 328.070312 1419.269531 461.550781 C 1419.269531 595.011719 1527.878906 703.609375 1661.328125 703.609375 "/>
</clipPath>
<linearGradient id="linear-pattern-1" gradientUnits="userSpaceOnUse" x1="0" y1="0" x2="1.000014" y2="0" gradientTransform="matrix(484.123, 0, 0, 484.123, 1419.27, 461.54)">
<stop offset="0" stop-color="rgb(41.567993%, 35.68573%, 65.881348%)" stop-opacity="1"/>
<stop offset="0.015625" stop-color="rgb(41.438293%, 35.862732%, 66.00647%)" stop-opacity="1"/>
<stop offset="0.03125" stop-color="rgb(41.181946%, 36.218262%, 66.25824%)" stop-opacity="1"/>
<stop offset="0.046875" stop-color="rgb(40.924072%, 36.573792%, 66.508484%)" stop-opacity="1"/>
<stop offset="0.0625" stop-color="rgb(40.666199%, 36.929321%, 66.760254%)" stop-opacity="1"/>
<stop offset="0.078125" stop-color="rgb(40.409851%, 37.284851%, 67.012024%)" stop-opacity="1"/>
<stop offset="0.09375" stop-color="rgb(40.151978%, 37.638855%, 67.262268%)" stop-opacity="1"/>
<stop offset="0.109375" stop-color="rgb(39.894104%, 37.994385%, 67.514038%)" stop-opacity="1"/>
<stop offset="0.125" stop-color="rgb(39.637756%, 38.349915%, 67.765808%)" stop-opacity="1"/>
<stop offset="0.140625" stop-color="rgb(39.379883%, 38.705444%, 68.016052%)" stop-opacity="1"/>
<stop offset="0.15625" stop-color="rgb(39.122009%, 39.060974%, 68.267822%)" stop-opacity="1"/>
<stop offset="0.171875" stop-color="rgb(38.865662%, 39.416504%, 68.519592%)" stop-opacity="1"/>
<stop offset="0.1875" stop-color="rgb(38.607788%, 39.772034%, 68.769836%)" stop-opacity="1"/>
<stop offset="0.203125" stop-color="rgb(38.349915%, 40.127563%, 69.021606%)" stop-opacity="1"/>
<stop offset="0.21875" stop-color="rgb(38.093567%, 40.483093%, 69.273376%)" stop-opacity="1"/>
<stop offset="0.234375" stop-color="rgb(37.835693%, 40.838623%, 69.523621%)" stop-opacity="1"/>
<stop offset="0.25" stop-color="rgb(37.57782%, 41.194153%, 69.775391%)" stop-opacity="1"/>
<stop offset="0.265625" stop-color="rgb(37.321472%, 41.548157%, 70.027161%)" stop-opacity="1"/>
<stop offset="0.28125" stop-color="rgb(37.063599%, 41.903687%, 70.277405%)" stop-opacity="1"/>
<stop offset="0.296875" stop-color="rgb(36.805725%, 42.259216%, 70.529175%)" stop-opacity="1"/>
<stop offset="0.3125" stop-color="rgb(36.549377%, 42.614746%, 70.779419%)" stop-opacity="1"/>
<stop offset="0.328125" stop-color="rgb(36.291504%, 42.970276%, 71.031189%)" stop-opacity="1"/>
<stop offset="0.34375" stop-color="rgb(36.03363%, 43.325806%, 71.282959%)" stop-opacity="1"/>
<stop offset="0.359375" stop-color="rgb(35.777283%, 43.681335%, 71.533203%)" stop-opacity="1"/>
<stop offset="0.375" stop-color="rgb(35.519409%, 44.036865%, 71.784973%)" stop-opacity="1"/>
<stop offset="0.390625" stop-color="rgb(35.261536%, 44.392395%, 72.036743%)" stop-opacity="1"/>
<stop offset="0.40625" stop-color="rgb(35.005188%, 44.747925%, 72.286987%)" stop-opacity="1"/>
<stop offset="0.421875" stop-color="rgb(34.747314%, 45.103455%, 72.538757%)" stop-opacity="1"/>
<stop offset="0.4375" stop-color="rgb(34.489441%, 45.458984%, 72.790527%)" stop-opacity="1"/>
<stop offset="0.453125" stop-color="rgb(34.233093%, 45.812988%, 73.040771%)" stop-opacity="1"/>
<stop offset="0.46875" stop-color="rgb(33.97522%, 46.168518%, 73.292542%)" stop-opacity="1"/>
<stop offset="0.484375" stop-color="rgb(33.717346%, 46.524048%, 73.544312%)" stop-opacity="1"/>
<stop offset="0.5" stop-color="rgb(33.460999%, 46.879578%, 73.794556%)" stop-opacity="1"/>
<stop offset="0.515625" stop-color="rgb(33.203125%, 47.235107%, 74.046326%)" stop-opacity="1"/>
<stop offset="0.53125" stop-color="rgb(32.945251%, 47.590637%, 74.29657%)" stop-opacity="1"/>
<stop offset="0.546875" stop-color="rgb(32.688904%, 47.946167%, 74.54834%)" stop-opacity="1"/>
<stop offset="0.5625" stop-color="rgb(32.43103%, 48.301697%, 74.80011%)" stop-opacity="1"/>
<stop offset="0.578125" stop-color="rgb(32.173157%, 48.657227%, 75.050354%)" stop-opacity="1"/>
<stop offset="0.59375" stop-color="rgb(31.916809%, 49.012756%, 75.302124%)" stop-opacity="1"/>
<stop offset="0.609375" stop-color="rgb(31.658936%, 49.368286%, 75.553894%)" stop-opacity="1"/>
<stop offset="0.625" stop-color="rgb(31.401062%, 49.72229%, 75.804138%)" stop-opacity="1"/>
<stop offset="0.640625" stop-color="rgb(31.144714%, 50.07782%, 76.055908%)" stop-opacity="1"/>
<stop offset="0.65625" stop-color="rgb(30.886841%, 50.43335%, 76.307678%)" stop-opacity="1"/>
<stop offset="0.671875" stop-color="rgb(30.628967%, 50.788879%, 76.557922%)" stop-opacity="1"/>
<stop offset="0.6875" stop-color="rgb(30.37262%, 51.144409%, 76.809692%)" stop-opacity="1"/>
<stop offset="0.703125" stop-color="rgb(30.114746%, 51.499939%, 77.061462%)" stop-opacity="1"/>
<stop offset="0.71875" stop-color="rgb(29.856873%, 51.855469%, 77.311707%)" stop-opacity="1"/>
<stop offset="0.734375" stop-color="rgb(29.600525%, 52.210999%, 77.563477%)" stop-opacity="1"/>
<stop offset="0.75" stop-color="rgb(29.342651%, 52.566528%, 77.815247%)" stop-opacity="1"/>
<stop offset="0.765625" stop-color="rgb(29.084778%, 52.922058%, 78.065491%)" stop-opacity="1"/>
<stop offset="0.78125" stop-color="rgb(28.82843%, 53.277588%, 78.317261%)" stop-opacity="1"/>
<stop offset="0.796875" stop-color="rgb(28.570557%, 53.633118%, 78.567505%)" stop-opacity="1"/>
<stop offset="0.8125" stop-color="rgb(28.314209%, 53.987122%, 78.819275%)" stop-opacity="1"/>
<stop offset="0.828125" stop-color="rgb(28.056335%, 54.342651%, 79.071045%)" stop-opacity="1"/>
<stop offset="0.84375" stop-color="rgb(27.798462%, 54.698181%, 79.321289%)" stop-opacity="1"/>
<stop offset="0.859375" stop-color="rgb(27.542114%, 55.053711%, 79.573059%)" stop-opacity="1"/>
<stop offset="0.875" stop-color="rgb(27.284241%, 55.409241%, 79.824829%)" stop-opacity="1"/>
<stop offset="0.890625" stop-color="rgb(27.026367%, 55.764771%, 80.075073%)" stop-opacity="1"/>
<stop offset="0.90625" stop-color="rgb(26.77002%, 56.1203%, 80.326843%)" stop-opacity="1"/>
<stop offset="0.921875" stop-color="rgb(26.512146%, 56.47583%, 80.578613%)" stop-opacity="1"/>
<stop offset="0.9375" stop-color="rgb(26.254272%, 56.83136%, 80.828857%)" stop-opacity="1"/>
<stop offset="0.953125" stop-color="rgb(25.997925%, 57.18689%, 81.080627%)" stop-opacity="1"/>
<stop offset="0.96875" stop-color="rgb(25.740051%, 57.542419%, 81.332397%)" stop-opacity="1"/>
<stop offset="0.984375" stop-color="rgb(25.482178%, 57.896423%, 81.582642%)" stop-opacity="1"/>
<stop offset="1" stop-color="rgb(25.22583%, 58.251953%, 81.834412%)" stop-opacity="1"/>
</linearGradient>
<clipPath id="clip-4">
<path clip-rule="nonzero" d="M 0 0 L 2603.390625 0 L 2603.390625 3304.769531 L 0 3304.769531 Z M 0 0 "/>
</clipPath>
</defs>
<g clip-path="url(#clip-0)">
<g clip-path="url(#clip-1)">
<path fill-rule="nonzero" fill="url(#linear-pattern-0)" d="M 252.539062 953.21875 L 252.539062 3241 L 2257.691406 3241 L 2257.691406 953.21875 Z M 252.539062 953.21875 "/>
</g>
</g>
<g clip-path="url(#clip-2)">
<g clip-path="url(#clip-3)">
<path fill-rule="nonzero" fill="url(#linear-pattern-1)" d="M 1419.269531 219.460938 L 1419.269531 703.609375 L 1903.398438 703.609375 L 1903.398438 219.460938 Z M 1419.269531 219.460938 "/>
</g>
</g>
<g clip-path="url(#clip-4)">
<path fill-rule="evenodd" fill="rgb(21.166992%, 4.315186%, 29.417419%)" fill-opacity="1" d="M 1596.800781 154.910156 C 1463.320312 154.910156 1354.710938 263.519531 1354.710938 396.988281 C 1354.710938 530.46875 1463.320312 639.058594 1596.800781 639.058594 C 1730.25 639.058594 1838.828125 530.46875 1838.828125 396.988281 C 1838.828125 263.519531 1730.28125 154.910156 1596.800781 154.910156 Z M 2193.160156 1573.648438 C 2117.199219 1604.25 2056.601562 1665.179688 2026.449219 1741.351562 L 1617.519531 1741.351562 C 1527.929688 1741.351562 1386.910156 1421.320312 1329.46875 1321.199219 C 1293.488281 1258.5 1195.648438 1277.089844 1185.261719 1351.039062 C 1181.371094 1378.671875 1296.171875 2139.878906 1309.96875 2235.398438 L 1158.160156 2206.988281 C 1110.601562 2198.078125 1066.460938 2234.769531 1066.460938 2283.128906 L 1066.460938 3066.019531 C 1066.460938 3176.390625 898.679688 3176.441406 898.679688 3066.019531 L 898.679688 2157 C 898.679688 2118.390625 870.246094 2085.671875 832.007812 2080.28125 L 665.957031 2057.011719 C 623.996094 2051.390625 584.980469 2080.101562 578.597656 2122.101562 L 434.859375 3067.25 C 426.808594 3120.070312 372.914062 3138.828125 329.207031 3138.828125 C 288.902344 3138.828125 262.402344 3085.378906 268.457031 3045.691406 L 382.671875 2294.789062 C 388.542969 2256.289062 364.851562 2219.359375 327.371094 2208.671875 L 187.992188 2168.929688 L 482.558594 1571.679688 C 716.019531 1098.359375 972.628906 888.660156 1287.328125 915.191406 L 1645.050781 1534.828125 C 1658.890625 1558.800781 1684.449219 1573.558594 1712.109375 1573.558594 L 2189.398438 1573.558594 C 2190.660156 1573.558594 2191.921875 1573.601562 2193.160156 1573.648438 Z M 982.609375 3304.769531 C 1114.28125 3304.769531 1221.398438 3197.640625 1221.441406 3065.988281 L 1221.441406 2376.421875 L 1387.941406 2407.550781 C 1440.019531 2417.320312 1486.378906 2372.769531 1478.820312 2320.320312 L 1397.03125 1754.640625 C 1459.378906 1837.011719 1531.53125 1896.269531 1617.519531 1896.269531 L 2020.171875 1896.269531 C 2063.820312 1956.808594 2160.511719 1926.210938 2160.511719 1851.039062 C 2160.511719 1772.738281 2223.988281 1707.019531 2304.519531 1707.019531 C 2382.53125 1707.019531 2448.511719 1770.320312 2448.511719 1851.039062 L 2448.511719 3214.421875 C 2448.511719 3316.410156 2603.421875 3316.410156 2603.390625 3214.390625 L 2603.390625 1851.039062 C 2603.390625 1724.25 2524.070312 1615.691406 2412.441406 1572.300781 C 2377.621094 1481.929688 2289.339844 1418.640625 2189.421875 1418.640625 L 1756.828125 1418.640625 L 1401.941406 803.929688 C 1390.011719 783.261719 1369.238281 769.289062 1345.621094 765.949219 C 749.035156 682.078125 443.777344 1300.101562 343.613281 1503.171875 L 8.007812 2183.640625 C -13.355469 2226.949219 9.820312 2279.160156 56.21875 2292.398438 L 219.289062 2338.890625 L 115.355469 3022.371094 C 104.746094 3092.019531 125.941406 3165.621094 172.023438 3219.230469 C 299.804688 3367.96875 559.1875 3280.109375 588.039062 3090.5 L 720.285156 2221.039062 L 743.820312 2224.320312 L 743.820312 3065.96875 C 743.820312 3197.660156 850.929688 3304.769531 982.609375 3304.769531 Z M 1596.800781 793.980469 C 1377.878906 793.980469 1199.808594 615.871094 1199.808594 396.988281 C 1199.808594 178.089844 1377.878906 0 1596.800781 0 C 1815.671875 0 1993.75 178.089844 1993.75 396.988281 C 1993.75 615.871094 1815.699219 793.980469 1596.800781 793.980469 "/>
</g>
</svg>
