<svg xmlns="http://www.w3.org/2000/svg" viewBox="0 0 24 24" fill="none">
  <path d="M4.5 13.1c-.44-.73-.44-1.57 0-2.3.16-.27.43-.45.74-.51l1.78-.36c.15-.03.29-.11.39-.23l2.07-2.48c1.06-1.27 1.59-1.91 2.02-1.75.43.16.43.97.43 2.58v7.9c0 1.61 0 2.42-.43 2.58-.43.16-.96-.48-2.02-1.75l-2.07-2.48a.86.86 0 0 0-.39-.23l-1.78-.36a1.3 1.3 0 0 1-.74-.51Z" stroke="#8EE0FF" stroke-width="2" stroke-linejoin="round"/>
  <path d="M15.7 9.1a4 4 0 0 1 0 5.8" stroke="#D2F5FF" stroke-width="2" stroke-linecap="round"/>
  <path d="M18.7 6.8a7.25 7.25 0 0 1 0 10.4" stroke="#4EC7F3" stroke-width="2" stroke-linecap="round"/>
</svg>
